# Blender 5.2.0 LTS
# www.blender.org
mtllib leaf.mtl
o Green_Grass_Leafs
v 0.003386 -0.000065 0.002561
v 0.026011 0.066221 0.001059
v 0.025368 0.066527 0.001350
v 0.003092 0.000001 0.001800
v 0.025537 0.066426 0.000605
v 0.002620 0.000132 0.002346
v 0.058458 0.128393 0.001144
v 0.058215 0.128534 0.000483
v 0.057847 0.128732 0.000970
v 0.098147 0.186045 -0.001364
v 0.098039 0.186160 -0.000715
v 0.097682 0.186444 -0.001099
v 0.148694 0.234451 -0.003425
v 0.148484 0.234734 -0.003002
v 0.148331 0.234929 -0.003564
v 0.205387 0.274474 -0.006405
v 0.205769 0.275033 -0.006915
v 0.205602 0.275303 -0.006523
v 0.266145 0.310389 -0.010524
v 0.266039 0.310656 -0.010167
v 0.266143 0.310915 -0.010676
v 0.331251 0.336396 -0.012924
v 0.331175 0.336580 -0.013341
v 0.331097 0.336823 -0.013016
v 0.399095 0.353304 -0.016921
v 0.399081 0.353530 -0.016632
v 0.399035 0.353701 -0.017001
v 0.468964 0.357246 -0.021052
v 0.468954 0.357315 -0.020698
v 0.468943 0.357569 -0.020894
v 0.538846 0.355205 -0.025561
v 0.538885 0.355478 -0.025426
v 0.538861 0.355423 -0.025728
v 0.607258 0.340555 -0.029774
v 0.607267 0.340601 -0.029522
v 0.607316 0.340777 -0.029661
v 0.673351 0.317156 -0.032354
v 0.673373 0.317247 -0.032537
v 0.673419 0.317347 -0.032390
v 0.736395 0.287005 -0.037888
v 0.736411 0.287027 -0.037736
v 0.736463 0.287124 -0.037818
v 0.795334 0.249125 -0.041624
v 0.795457 0.249155 -0.041587
v 0.795375 0.249187 -0.041678
v 0.848209 0.203254 -0.045519
v 0.848230 0.203272 -0.045482
v 0.848235 0.203281 -0.045546
v 0.848255 0.203299 -0.045509
v 0.896006 0.151903 -0.047503
v 0.003412 -0.000074 0.002376
v 0.003092 0.000001 0.001800
v 0.002839 0.000076 0.002408
v 0.038011 0.098566 0.000857
v 0.118936 0.220631 -0.001499
v 0.105763 0.217254 0.072979
v 0.329903 0.363105 0.030578
v 0.302874 0.313145 0.131861
v 0.491141 0.393913 -0.033075
v 0.683000 0.332879 -0.033907
v 0.495294 0.336293 0.134103
v 0.620419 0.363207 0.015778
v 0.807549 0.267170 0.015641
v 0.896495 0.152305 -0.047458
v 0.061160 0.219407 -0.057558
v 0.173573 0.332499 -0.123757
v 0.316144 0.393637 -0.071001
v 0.437145 0.422031 -0.175541
v 0.678628 0.389728 -0.138963
v 0.854084 0.243731 -0.072334
v -0.005865 -0.000018 0.010334
v -0.008706 0.070804 0.012496
v -0.006270 0.000001 0.009612
v -0.008417 0.070836 0.011786
v -0.008021 0.070837 0.012444
v -0.005538 0.000039 0.009583
v -0.018180 0.139856 0.023942
v -0.017948 0.140035 0.023290
v -0.017560 0.140016 0.023893
v -0.039522 0.204118 0.044417
v -0.039638 0.204289 0.043858
v -0.039049 0.204471 0.044107
v -0.084610 0.306899 0.098399
v -0.080937 0.298432 0.093459
v -0.082585 0.303279 0.095883
v -0.120057 0.379029 0.134229
v -0.120025 0.379313 0.133803
v -0.119676 0.379280 0.134180
v -0.154739 0.429374 0.169997
v -0.154346 0.429571 0.170142
v -0.154505 0.429716 0.169789
v -0.188665 0.475935 0.211213
v -0.188835 0.476084 0.210924
v -0.188431 0.476205 0.211026
v -0.229559 0.512004 0.256376
v -0.229725 0.512134 0.256134
v -0.229424 0.512307 0.256192
v -0.275502 0.539348 0.302963
v -0.275251 0.539509 0.303046
v -0.275389 0.539606 0.302828
v -0.317315 0.572019 0.349811
v -0.317449 0.572105 0.349646
v -0.317210 0.572224 0.349705
v -0.362809 0.593465 0.399724
v -0.362945 0.593440 0.399571
v -0.362872 0.593607 0.399590
v -0.411654 0.606198 0.449471
v -0.411735 0.606311 0.449401
v -0.411599 0.606324 0.449480
v -0.457015 0.619461 0.502635
v -0.456944 0.619402 0.502398
v -0.456910 0.619488 0.502403
v -0.504313 0.628356 0.554322
v -0.504344 0.628369 0.554292
v -0.504302 0.628400 0.554330
v -0.504334 0.628413 0.554299
v -0.553917 0.625573 0.604851
v -0.006143 -0.000021 0.010131
v -0.005506 0.000001 0.010315
v -0.005743 0.000023 0.009696
v -0.085593 0.245816 -0.011643
v -0.153096 0.448302 0.169680
v -0.257208 0.457776 0.065394
v -0.380533 0.560254 0.199933
v -0.328748 0.584581 0.357986
v -0.491998 0.620861 0.453423
v -0.554331 0.627302 0.604641
v -0.005405 0.104854 0.011195
v 0.022700 0.275116 0.082857
v 0.004702 0.405358 0.158060
v -0.097110 0.581563 0.293662
v -0.276175 0.666932 0.422174
v -0.484239 0.661141 0.547786
v 0.001462 -0.000057 0.002418
v -0.011305 0.061160 -0.006147
v 0.002098 0.000001 0.001897
v -0.010330 0.059992 -0.005927
v 0.002208 0.000142 0.002849
v -0.013783 0.072119 -0.007532
v -0.024855 0.106660 -0.015091
v -0.024187 0.106970 -0.014978
v -0.030023 0.122002 -0.017619
v -0.045795 0.157322 -0.027778
v -0.043599 0.153904 -0.026214
v -0.080628 0.220152 -0.049323
v -0.079655 0.218148 -0.049725
v -0.078535 0.216445 -0.048437
v -0.109344 0.262095 -0.069181
v -0.108882 0.262507 -0.069195
v -0.150539 0.316440 -0.096907
v -0.163393 0.332814 -0.104593
v -0.147985 0.313930 -0.095142
v -0.173804 0.344143 -0.111593
v -0.172824 0.343723 -0.110856
v -0.196646 0.368001 -0.126092
v -0.196268 0.367997 -0.126452
v -0.242163 0.408392 -0.155421
v -0.204273 0.376091 -0.131210
v -0.221035 0.390946 -0.142014
v -0.247402 0.411363 -0.158435
v -0.247369 0.411653 -0.158143
v -0.283258 0.436299 -0.181475
v -0.274195 0.430733 -0.175573
v -0.302034 0.448540 -0.193819
v -0.354605 0.481154 -0.229119
v -0.317664 0.458266 -0.204439
v -0.369053 0.490442 -0.238867
v -0.356294 0.482588 -0.230233
v -0.385280 0.498876 -0.248539
v -0.384474 0.498786 -0.248264
v -0.414909 0.513180 -0.267382
v -0.413524 0.512645 -0.266859
v -0.413524 0.512872 -0.266702
v -0.443733 0.524948 -0.286063
v -0.462096 0.531676 -0.298206
v -0.443036 0.524979 -0.285796
v -0.473221 0.534811 -0.305127
v -0.473234 0.535009 -0.305012
v -0.505002 0.543258 -0.325293
v -0.503735 0.543192 -0.324678
v -0.504423 0.543280 -0.324750
v -0.565157 0.555587 -0.364615
v -0.565141 0.555737 -0.364741
v -0.582314 0.559133 -0.375943
v -0.595901 0.560844 -0.385291
v -0.595661 0.560972 -0.385158
v -0.750851 0.569484 -0.484230
v 0.001614 -0.000066 0.002115
v 0.001535 0.000001 0.002769
v 0.002100 0.000068 0.002428
v -0.014940 0.087034 -0.006774
v -0.001227 0.174137 -0.048179
v -0.068289 0.320474 -0.178215
v -0.155523 0.399688 -0.170590
v -0.236173 0.408945 -0.149926
v -0.280102 0.460510 -0.351899
v -0.378269 0.536829 -0.320399
v -0.544583 0.561721 -0.354345
v -0.573107 0.577378 -0.458321
v -0.784453 0.571170 -0.503447
v -0.032694 0.190296 0.026582
v -0.157124 0.333678 0.017201
v -0.205350 0.427524 -0.082440
v -0.323934 0.475774 -0.049254
v -0.418068 0.571738 -0.225796
v -0.461204 0.571996 -0.152308
v -0.636221 0.629352 -0.359717
v 0.001215 0.000169 -0.000476
v 0.004335 0.000035 -0.003497
v 0.003440 0.000193 0.000497
v 0.003102 0.104749 -0.016445
v 0.005758 0.153359 -0.025689
v 0.007178 0.175972 -0.028294
v 0.006464 0.176053 -0.028285
v 0.013464 0.229180 -0.041704
v 0.014471 0.235527 -0.043437
v 0.011207 0.219230 -0.038018
v 0.024515 0.322511 -0.076214
v 0.027174 0.343416 -0.084068
v 0.026158 0.341731 -0.083442
v 0.032702 0.382591 -0.104341
v 0.032967 0.382809 -0.103940
v 0.034071 0.396580 -0.111643
v 0.037567 0.423694 -0.132792
v 0.037167 0.422462 -0.131261
v 0.050659 0.484971 -0.182318
v 0.051698 0.487712 -0.184043
v 0.053358 0.495449 -0.190713
v 0.061280 0.518314 -0.214865
v 0.061269 0.518618 -0.214447
v 0.069753 0.546788 -0.247979
v 0.069702 0.547718 -0.248058
v 0.069406 0.546976 -0.247861
v 0.083996 0.606456 -0.305117
v 0.076813 0.579026 -0.277840
v 0.085534 0.609583 -0.308994
v 0.085724 0.609786 -0.308755
v 0.099852 0.645335 -0.354307
v 0.096442 0.637488 -0.342996
v 0.098114 0.642143 -0.349283
v 0.120731 0.685262 -0.409373
v 0.121434 0.686756 -0.411693
v 0.121592 0.686936 -0.411515
v 0.133965 0.707229 -0.449119
v 0.134119 0.707412 -0.448984
v 0.133828 0.707495 -0.449043
v 0.144424 0.723737 -0.489110
v 0.144150 0.723799 -0.489138
v 0.144295 0.723973 -0.489027
v 0.154984 0.743442 -0.527573
v 0.155112 0.743596 -0.527461
v 0.154869 0.743663 -0.527510
v 0.167262 0.760012 -0.567001
v 0.167042 0.760069 -0.567040
v 0.167160 0.760213 -0.566951
v 0.179473 0.771811 -0.608110
v 0.179582 0.771944 -0.608046
v 0.179392 0.772000 -0.608101
v 0.191298 0.778951 -0.650393
v 0.191397 0.779071 -0.650353
v 0.191230 0.779118 -0.650398
v 0.202638 0.781367 -0.693327
v 0.202677 0.781516 -0.693324
v 0.202536 0.781458 -0.693346
v 0.210940 0.781749 -0.737020
v 0.211012 0.781834 -0.736994
v 0.210890 0.781866 -0.737019
v 0.220302 0.788463 -0.780053
v 0.220196 0.788482 -0.780036
v 0.220252 0.788550 -0.780008
v 0.230739 0.796084 -0.822595
v 0.230782 0.796135 -0.822578
v 0.230693 0.796144 -0.822549
v 0.242517 0.799087 -0.865399
v 0.242542 0.799140 -0.865448
v 0.242484 0.799117 -0.865408
v 0.255467 0.797391 -0.907937
v 0.255482 0.797408 -0.907934
v 0.255459 0.797414 -0.907941
v 0.269438 0.791073 -0.949713
v 0.003985 -0.000006 -0.004805
v 0.003334 0.000001 -0.004680
v 0.003825 0.000008 -0.004234
v 0.028304 0.200617 -0.002254
v 0.032827 0.405721 -0.106803
v 0.087209 0.355148 -0.027562
v 0.074809 0.454098 -0.094326
v 0.172971 0.550074 -0.184776
v 0.148978 0.694052 -0.340731
v 0.103236 0.658844 -0.363375
v 0.244243 0.726036 -0.402750
v 0.178365 0.782002 -0.575245
v 0.262292 0.812484 -0.674403
v 0.267783 0.793090 -0.950483
v 0.258372 0.820203 -0.846367
v 0.003992 0.123214 -0.020423
v -0.024484 0.199488 -0.005398
v -0.056947 0.367895 -0.076774
v -0.009108 0.456563 -0.115765
v -0.048775 0.557704 -0.265090
v 0.054644 0.688582 -0.354046
v -0.006064 0.697073 -0.429871
v 0.129338 0.823835 -0.689852
v 0.226124 0.823425 -0.880956
v 0.002921 0.000026 0.004497
v 0.002423 0.000096 0.004466
v 0.003546 0.000001 0.004270
v 0.014715 0.079325 0.024857
v 0.016284 0.083784 0.027147
v 0.016504 0.083948 0.026516
v 0.024800 0.123545 0.043446
v 0.024303 0.123894 0.043017
v 0.025024 0.123784 0.042867
v 0.034625 0.160064 0.065584
v 0.034854 0.160363 0.065064
v 0.054393 0.223969 0.115230
v 0.053098 0.221776 0.113853
v 0.035009 0.161849 0.066550
v 0.058502 0.239163 0.125574
v 0.075248 0.270398 0.152525
v 0.070949 0.263301 0.145156
v 0.097679 0.310823 0.196569
v 0.101049 0.316501 0.202723
v 0.116306 0.341963 0.234994
v 0.115881 0.342236 0.235006
v 0.145584 0.378576 0.295316
v 0.116022 0.341691 0.235533
v 0.160565 0.398965 0.330874
v 0.149004 0.383983 0.303009
v 0.165582 0.403215 0.340500
v 0.165229 0.403463 0.340558
v 0.184865 0.416092 0.377752
v 0.184448 0.416180 0.377930
v 0.184640 0.416496 0.377747
v 0.204952 0.423338 0.416086
v 0.204560 0.423418 0.416259
v 0.204757 0.423725 0.416122
v 0.225608 0.424560 0.454724
v 0.225462 0.424927 0.454836
v 0.225804 0.424852 0.454620
v 0.247463 0.420293 0.492556
v 0.247127 0.420362 0.492731
v 0.247324 0.420635 0.492663
v 0.268317 0.420020 0.531123
v 0.276227 0.419873 0.546515
v 0.268483 0.420279 0.531031
v 0.288292 0.418043 0.570246
v 0.302329 0.416107 0.599575
v 0.306976 0.414283 0.609689
v 0.307131 0.414506 0.609645
v 0.324584 0.406824 0.649192
v 0.324326 0.406868 0.649299
v 0.324479 0.407068 0.649287
v 0.341932 0.393572 0.687199
v 0.342200 0.393607 0.687720
v 0.342712 0.393386 0.687980
v 0.368530 0.366052 0.740130
v 0.391612 0.339526 0.789586
v 0.393503 0.336360 0.793887
v 0.392354 0.338234 0.791594
v 0.411577 0.311477 0.825190
v 0.411494 0.311531 0.825286
v 0.411647 0.311566 0.825318
v 0.427396 0.282301 0.853917
v 0.427284 0.282311 0.853979
v 0.427368 0.282381 0.854014
v 0.440690 0.249245 0.879536
v 0.440684 0.249264 0.879648
v 0.440760 0.249293 0.879571
v 0.453166 0.216456 0.905775
v 0.453098 0.216463 0.905810
v 0.453147 0.216507 0.905830
v 0.465680 0.185880 0.934674
v 0.465728 0.185898 0.934674
v 0.465700 0.185914 0.934706
v 0.478822 0.151817 0.959039
v 0.478808 0.151823 0.959057
v 0.478839 0.151828 0.959049
v 0.478825 0.151835 0.959066
v 0.489297 0.114783 0.980155
v 0.003143 -0.000080 0.004790
v 0.003546 0.000001 0.004270
v 0.002888 0.000082 0.004280
v 0.017080 0.095393 0.030205
v 0.004513 0.139295 0.039440
v -0.016332 0.259685 0.110462
v 0.012193 0.396566 0.280814
v 0.120948 0.461990 0.366065
v 0.160846 0.405847 0.329887
v 0.108729 0.458817 0.528700
v 0.338117 0.418686 0.661917
v 0.242882 0.436826 0.754716
v 0.354908 0.345270 0.884026
v 0.408509 0.324183 0.822919
v 0.493246 0.116516 0.981255
v 0.443680 0.206707 0.950059
v 0.039439 0.170539 0.025241
v 0.196679 0.445148 0.314953
v 0.226259 0.378247 0.209230
v 0.388804 0.442999 0.477574
v 0.454997 0.399061 0.709777
v 0.482906 0.291152 0.870046
vn -0.7021 0.3103 0.6409
vn -0.8726 0.3029 0.3831
vn 0.7452 -0.2475 0.6192
vn 0.8828 -0.3734 0.2849
vn 0.6397 -0.3655 0.6762
vn 0.0591 -0.0673 -0.9960
vn 0.4319 -0.4102 -0.8032
vn -0.6055 0.6331 -0.4823
vn -0.7559 0.6480 -0.0934
vn 0.5974 -0.7498 -0.2844
vn -0.5430 0.8393 0.0255
vn 0.0688 -0.0249 0.9973
vn -0.3473 0.9117 0.2195
vn -0.1151 0.0664 -0.9911
vn -0.5258 0.8426 0.1168
vn 0.4412 -0.8898 -0.1165
vn -0.1198 0.3578 0.9261
vn 0.0734 -0.0566 0.9957
vn -0.0714 0.8977 -0.4349
vn -0.0814 0.1095 -0.9907
vn -0.3035 0.9471 0.1044
vn -0.0090 -0.6568 -0.7540
vn 0.1401 -0.9488 -0.2831
vn 0.1883 0.8733 -0.4493
vn -0.0138 0.9983 -0.0563
vn 0.0631 -0.1145 0.9914
vn -0.0400 0.1663 -0.9853
vn -0.1909 -0.3868 -0.9022
vn -0.1256 -0.9838 -0.1283
vn -0.2332 -0.6696 0.7052
vn -0.0285 -0.2527 0.9671
vn -0.1223 -0.1499 -0.9811
vn -0.2656 -0.3763 -0.8876
vn 0.5108 0.5073 0.6940
vn 0.4977 0.8587 0.1220
vn -0.0955 -0.3176 0.9434
vn -0.7175 -0.6701 -0.1902
vn -0.7244 -0.6757 -0.1368
vn -0.7184 -0.6768 -0.1608
vn -0.3281 0.9394 -0.0993
vn 0.0961 0.8610 0.4995
vn -0.6289 0.7206 0.2919
vn 0.2037 0.9788 0.0223
vn 0.4260 0.8812 0.2049
vn 0.5771 0.7507 -0.3217
vn 0.0567 0.9401 0.3362
vn -0.2866 0.8741 0.3922
vn -0.4814 0.7993 0.3596
vn -0.5634 0.5952 0.5730
vn -0.0477 0.9917 0.1190
vn 0.3117 0.8730 0.3752
vn -0.0382 0.1635 -0.9858
vn 0.6899 0.0462 -0.7224
vn -0.7439 -0.0053 -0.6683
vn 0.9027 0.4142 -0.1166
vn 0.9250 0.1479 0.3500
vn -0.1080 0.1900 -0.9758
vn 0.2801 -0.3172 0.9060
vn -0.4179 -0.4824 0.7698
vn -0.1594 0.5096 -0.8455
vn 0.7997 0.5047 -0.3251
vn -0.7327 0.0343 -0.6797
vn -0.4662 -0.6330 0.6180
vn -0.7731 -0.6192 0.1377
vn 0.6150 0.7870 -0.0482
vn 0.8344 0.1705 0.5241
vn 0.1199 0.6679 -0.7346
vn 0.0521 -0.8068 0.5885
vn -0.8147 -0.5791 0.0303
vn -0.7691 -0.1873 -0.6111
vn 0.3737 0.9275 -0.0128
vn 0.7834 0.3032 0.5425
vn 0.0070 0.8440 -0.5363
vn 0.6026 -0.3578 0.7133
vn 0.1430 -0.7932 0.5919
vn -0.7312 -0.3673 -0.5748
vn -0.7858 0.1486 -0.6004
vn 0.0363 0.9527 -0.3019
vn 0.7127 -0.1545 0.6843
vn 0.1927 -0.8950 0.4023
vn 0.7176 0.4264 0.5507
vn 0.4065 -0.8373 0.3657
vn 0.3369 -0.8916 0.3026
vn -0.3309 -0.5583 0.7608
vn 0.3608 0.9043 -0.2283
vn -0.0352 0.8906 -0.4534
vn 0.4783 0.7865 -0.3906
vn -0.6496 0.3517 -0.6741
vn -0.4096 0.7243 -0.5546
vn -0.8514 0.0213 0.5241
vn 0.5319 0.2268 0.8159
vn 0.5387 -0.0018 -0.8425
vn 0.2581 0.2059 0.9439
vn 0.9525 0.2617 -0.1554
vn -0.7202 -0.3560 -0.5955
vn 0.7060 0.1524 -0.6916
vn 0.6710 0.4915 0.5552
vn 0.4054 0.3843 0.8295
vn 0.8836 0.4365 -0.1698
vn 0.1193 -0.3403 -0.9327
vn -0.4205 0.8320 0.3619
vn -0.7886 -0.2731 0.5510
vn -0.0818 -0.4777 -0.8747
vn 0.4337 -0.1034 -0.8951
vn 0.3226 0.6296 0.7068
vn 0.4447 -0.1191 -0.8877
vn 0.5672 0.7444 0.3523
vn 0.7038 0.6608 0.2608
vn -0.7427 -0.4890 0.4574
vn 0.6456 0.7636 -0.0012
vn 0.3752 -0.2483 -0.8931
vn 0.5059 0.8104 0.2956
vn -0.4658 -0.8505 -0.2442
vn 0.1771 0.8335 0.5234
vn -0.3316 0.3494 0.8763
vn -0.6177 -0.1748 0.7668
vn 0.6544 0.6650 -0.3600
vn 0.1311 0.8154 0.5639
vn -0.4988 -0.8644 -0.0637
vn 0.2995 0.8564 0.4205
vn 0.5997 0.7011 -0.3857
vn -0.5884 -0.1808 0.7881
vn -0.3554 -0.9230 0.1474
vn 0.4850 0.8286 -0.2796
vn -0.5604 -0.0245 0.8279
vn -0.1020 0.9239 0.3687
vn -0.4182 0.4795 0.7715
vn 0.5321 0.0120 -0.8466
vn 0.6363 0.6911 -0.3428
vn -0.1798 -0.9829 -0.0394
vn -0.3459 -0.8735 0.3425
vn 0.4965 -0.3234 -0.8056
vn 0.2197 0.9497 -0.2231
vn -0.5560 0.0690 0.8283
vn 0.6312 0.7180 0.2933
vn 0.5026 0.7908 0.3493
vn -0.0075 0.4813 0.8765
vn 0.6224 0.7823 0.0232
vn 0.7066 0.6646 0.2428
vn 0.5643 0.7983 -0.2103
vn 0.3003 0.9469 0.1148
vn 0.0309 0.9954 0.0909
vn 0.7127 0.7008 -0.0302
vn 0.6822 0.6666 0.3004
vn 0.8134 0.3855 -0.4356
vn 0.4327 0.8474 0.3076
vn 0.5341 0.8087 -0.2463
vn 0.3399 0.9053 -0.2548
vn -0.9697 0.0677 0.2347
vn -0.7210 -0.5473 0.4249
vn 0.5188 -0.0989 -0.8491
vn 0.1576 -0.1230 -0.9798
vn 0.4267 0.1583 0.8904
vn -0.1735 0.0915 -0.9806
vn -0.2356 -0.2633 -0.9355
vn 0.9050 0.0197 0.4250
vn -0.7169 0.2557 0.6486
vn -0.2969 -0.3039 -0.9053
vn -0.8381 0.2626 0.4782
vn 0.7128 0.1775 0.6785
vn 0.5556 0.3026 0.7744
vn 0.1042 -0.5521 -0.8272
vn -0.7385 -0.3213 -0.5928
vn 0.8995 0.1255 0.4185
vn -0.5799 0.5421 0.6081
vn -0.4528 0.7004 0.5518
vn 0.0383 -0.1457 0.9886
vn 0.3040 0.6747 0.6726
vn 0.9089 -0.3822 -0.1668
vn 0.8010 -0.5228 -0.2915
vn -0.8567 -0.2250 -0.4642
vn -0.3164 0.8369 0.4466
vn 0.3795 0.6589 0.6495
vn -0.6726 -0.4535 -0.5848
vn 0.8484 -0.5259 -0.0603
vn 0.0250 0.8618 0.5066
vn -0.8311 0.5478 0.0957
vn 0.5508 0.7252 0.4131
vn -0.9625 0.1438 -0.2300
vn 0.0599 -0.9089 -0.4127
vn -0.2549 -0.8026 -0.5393
vn 0.9669 -0.0783 0.2429
vn -0.1566 0.9124 0.3781
vn 0.0932 0.9510 0.2948
vn -0.9567 -0.0613 -0.2846
vn 0.7512 0.4798 0.4533
vn 0.9508 0.0569 0.3046
vn 0.1519 -0.9120 -0.3810
vn -0.7090 0.7003 -0.0829
vn -0.9535 -0.0276 -0.3001
vn -0.1384 0.9463 0.2923
vn 0.8895 0.3628 0.2779
vn 0.7220 0.6678 0.1810
vn -0.7507 0.6487 -0.1255
vn -0.8489 0.5065 -0.1512
vn -0.9330 0.2977 -0.2023
vn 0.0762 -0.9941 -0.0771
vn 0.6405 -0.7674 0.0299
vn 0.9514 0.2320 0.2024
vn -0.1134 0.9844 0.1345
vn -0.7980 0.5524 -0.2408
vn -0.9699 -0.0696 -0.2332
vn 0.9207 0.2982 0.2519
vn 0.6127 0.7729 0.1649
vn -0.7516 0.5989 -0.2764
vn -0.9346 0.2610 -0.2417
vn -0.0263 -0.9956 0.0898
vn -0.6651 0.5547 -0.5000
vn 0.8825 0.4175 0.2165
vn -0.5848 0.4259 0.6904
vn -0.3403 0.6257 0.7019
vn -0.8822 0.2343 0.4083
vn -0.0187 0.7167 0.6971
vn -0.3065 0.8188 0.4854
vn -0.0199 0.9534 0.3011
vn -0.1070 0.7995 0.5910
vn -0.2337 0.9676 0.0953
vn -0.0094 0.9056 0.4240
vn -0.8406 0.5156 -0.1659
vn -0.1976 0.5019 0.8420
vn 0.6588 0.1893 0.7281
vn -0.0451 0.3093 0.9499
vn -0.0655 0.6308 0.7732
vn -0.0794 0.4540 0.8875
vn 0.0231 0.8039 0.5943
vn -0.4339 0.6985 0.5690
vn 0.7365 0.6444 0.2057
vn 0.2265 0.9698 0.0907
vn -0.8275 0.2642 -0.4955
vn 0.9611 -0.0660 -0.2683
vn -0.9494 0.2044 -0.2384
vn 0.7366 0.1472 -0.6601
vn -0.1909 -0.2174 0.9572
vn 0.9157 -0.3956 0.0703
vn 0.1987 -0.5722 0.7956
vn 0.6277 0.2537 -0.7360
vn 0.6072 -0.7068 0.3631
vn -0.9599 0.0733 0.2707
vn -0.7944 -0.2078 0.5707
vn 0.5493 0.4561 -0.7002
vn -0.6277 0.7048 -0.3306
vn -0.3208 0.7060 -0.6314
vn -0.1598 -0.7529 0.6384
vn -0.2803 -0.7507 0.5982
vn 0.8833 0.0530 -0.4659
vn 0.9168 -0.3017 -0.2616
vn 0.9174 -0.3482 -0.1928
vn -0.7911 -0.3402 0.5084
vn -0.4928 0.8633 -0.1089
vn 0.7706 0.3391 -0.5396
vn 0.7997 -0.5336 -0.2752
vn -0.8513 -0.2041 0.4833
vn 0.3777 0.9226 -0.0785
vn -0.0642 0.9957 -0.0663
vn 0.4350 -0.8919 -0.1241
vn 0.0962 -0.9911 -0.0918
vn 0.8655 0.1590 -0.4751
vn -0.2384 0.9516 0.1942
vn -0.2321 0.9555 0.1820
vn -0.8444 -0.2681 0.4638
vn 0.7995 0.4193 -0.4301
vn 0.8751 -0.1595 -0.4570
vn 0.3694 -0.9056 -0.2083
vn 0.3943 -0.8587 -0.3273
vn 0.1911 0.9812 0.0266
vn 0.8231 0.5087 -0.2525
vn -0.5868 0.6561 0.4747
vn -0.9049 -0.2197 0.3646
vn -0.4034 0.7575 0.5133
vn -0.2666 0.8972 0.3521
vn -0.8871 -0.4450 0.1225
vn -0.3517 -0.9214 -0.1653
vn 0.9079 0.2876 -0.3049
vn 0.6936 0.7177 0.0620
vn -0.9035 -0.3470 0.2517
vn -0.3530 0.6676 0.6555
vn 0.3910 0.7286 0.5624
vn 0.5849 -0.3856 -0.7136
vn -0.1979 -0.7981 -0.5691
vn -0.5779 0.3754 0.7247
vn 0.2675 0.7010 0.6611
vn -0.9381 -0.1749 0.2990
vn 0.6646 -0.3593 -0.6551
vn -0.1003 -0.6394 -0.7623
vn 0.9483 0.1549 -0.2771
vn -0.7979 -0.5382 -0.2714
vn -0.9552 -0.2536 0.1524
vn -0.0889 -0.5198 -0.8497
vn -0.1530 -0.5278 -0.8355
vn -0.1093 -0.6036 -0.7897
vn -0.0553 0.8376 -0.5435
vn 0.0774 0.9433 -0.3227
vn 0.5027 0.5301 -0.6829
vn -0.2116 0.9028 -0.3744
vn -0.4293 0.3852 -0.8169
vn 0.1694 0.9699 0.1747
vn 0.3456 0.9288 0.1340
vn 0.0158 0.9996 0.0213
vn 0.7811 0.5546 0.2869
vn 0.2906 0.8242 0.4860
vn 0.5764 0.7570 0.3078
vn -0.6663 0.6053 -0.4354
vn -0.4330 0.0920 -0.8967
vn -0.2772 0.9428 -0.1853
vn 0.0085 0.9985 0.0545
vn -0.0109 0.8993 0.4372
vn -0.2238 0.5975 0.7700
vn 0.3837 0.6585 0.6474
vn -0.1019 0.0332 -0.9942
vn -0.0845 0.0110 -0.9964
vn -0.8234 0.4953 0.2770
vn 0.2137 -0.1149 0.9701
vn 0.0716 -0.0755 0.9946
vn 0.2669 0.9534 0.1407
vn 0.3867 0.9108 0.1449
vn -0.5830 -0.8015 -0.1329
vn 0.0440 0.1666 -0.9850
vn 0.4635 -0.3256 0.8241
vn -0.0473 -0.9988 -0.0094
vn 0.6036 -0.2399 -0.7603
vn 0.9570 0.2050 0.2053
vn -0.6730 0.7394 0.0186
vn -0.3527 0.8971 0.2662
vn -0.7244 0.6243 0.2924
vn -0.1548 -0.0124 0.9879
vn -0.7244 -0.1173 0.6794
vn 0.4116 0.8899 0.1967
vn 0.3859 0.4735 0.7917
vn 0.8381 0.0332 0.5445
vn -0.6796 -0.3145 0.6628
vn -0.6141 0.0790 -0.7853
vn 0.8288 0.1642 0.5348
vn -0.0825 -0.7379 0.6698
vn -0.8036 -0.0773 -0.5901
vn 0.6417 0.7668 -0.0171
vn -0.7934 -0.2717 -0.5447
vn -0.7325 -0.4227 -0.5337
vn -0.2499 0.8665 -0.4320
vn 0.0452 -0.6117 0.7898
vn -0.9303 -0.3275 0.1654
vn -0.5998 0.7685 0.2228
vn 0.1795 0.4141 0.8924
vn 0.1660 0.9818 -0.0925
vn 0.5265 0.5554 -0.6437
vn 0.8248 0.5050 -0.2544
vn 0.2612 0.7338 -0.6271
vn -0.0208 0.4481 -0.8938
vn 0.0263 0.5121 -0.8585
vn -0.2845 0.7045 -0.6502
vn -0.1039 0.6909 -0.7155
vn -0.9748 -0.2086 -0.0793
vn -0.5878 -0.2635 -0.7649
vn 0.5703 0.8022 0.1768
vn 0.4285 0.9000 0.0801
vn -0.5518 -0.0403 0.8330
vn 0.0866 -0.7151 -0.6936
vn 0.3915 0.9174 0.0719
vn 0.3760 0.9266 -0.0093
vn -0.2683 0.6875 0.6748
vn 0.2449 0.9119 -0.3293
vn 0.3303 0.9231 0.1969
vn 0.4651 0.6469 -0.6044
vn 0.9349 -0.2404 -0.2612
vn 0.5327 0.3426 0.7739
vn 0.8415 -0.4953 -0.2160
vn 0.2956 0.6874 0.6634
vn -0.6106 0.6233 0.4886
vn -0.2886 -0.6748 -0.6792
vn 0.0299 -0.9745 -0.2226
vn 0.9398 0.1558 0.3041
vn -0.0387 -0.9916 -0.1233
vn 0.0913 -0.9958 -0.0110
vn 0.0791 -0.9914 -0.1047
vn 0.1025 -0.9947 -0.0048
vn 0.2473 -0.3738 0.8939
vn -0.3427 0.8607 0.3764
vn 0.2426 0.9414 0.2342
vn 0.2134 -0.4767 0.8528
vn -0.9489 0.2926 -0.1184
vn 0.6705 0.1999 -0.7145
vn -0.4221 0.8165 -0.3939
vn -0.1583 0.9743 -0.1604
vn -0.7022 -0.4857 0.5206
vn 0.7730 -0.5592 -0.2997
vn -0.9057 -0.0748 0.4173
vn 0.0901 0.6660 0.7405
vn 0.9051 -0.0035 -0.4251
vn 0.0277 0.6379 0.7697
vn -0.0550 -0.9321 -0.3581
vn 0.8761 -0.4698 0.1087
vn -0.6304 -0.6458 0.4307
vn 0.1521 -0.1151 0.9816
vn -0.1290 0.8241 -0.5515
vt 0.875458 1.352943
vt 0.750000 0.000000
vt 1.000000 0.000000
vt 0.250000 1.352943
vt 0.125490 2.705885
vt 0.000000 1.352943
vt 0.500000 2.705885
vt 0.375092 4.058828
vt 0.625671 5.411771
vt 0.750000 4.058828
vt 0.250000 5.411771
vt 0.139089 6.764714
vt 0.000000 5.411771
vt 0.603004 8.117657
vt 0.500000 6.764714
vt 0.750000 6.764714
vt 0.250000 8.117657
vt 0.125470 9.470599
vt 0.000000 8.117657
vt 0.625618 10.823542
vt 0.500000 9.470599
vt 0.750000 9.470599
vt 0.375829 12.176485
vt 0.250000 10.823542
vt 0.875490 13.529428
vt 0.750000 12.176485
vt 1.000000 12.176485
vt 0.500000 13.529428
vt 0.375945 14.882370
vt 0.250000 13.529428
vt 0.125440 16.235313
vt 0.000000 14.882370
vt 0.500000 16.235313
vt 0.375864 17.588255
vt 0.855540 18.941198
vt 0.750000 17.588255
vt 1.000000 17.588255
vt 0.000000 20.294142
vt 0.500000 20.294142
vt 0.000000 21.647083
vt 0.647042 0.384701
vt 0.357884 0.529483
vt 0.500701 0.127397
vt 0.648800 0.663162
vt 0.440148 0.735076
vt 0.669606 0.851538
vt 0.989288 0.535699
vt 0.285585 0.384145
vt 0.122773 0.253367
vt 0.312605 0.106339
vt 0.013636 0.498248
vt 0.142859 0.706940
vt 0.875767 1.367496
vt 0.626086 4.102489
vt 0.500000 2.734993
vt 0.875974 2.734993
vt 0.365292 6.497341
vt 0.250000 4.102489
vt 0.876338 8.204978
vt 0.750000 6.413781
vt 1.000000 6.304504
vt 0.250000 8.204978
vt 0.125703 9.572474
vt 0.000000 8.204978
vt 0.601030 10.939970
vt 0.500000 9.572474
vt 0.750000 9.572474
vt 0.250000 12.307467
vt 0.127747 13.674963
vt 0.000000 12.307467
vt 0.600362 15.042458
vt 0.500000 13.674963
vt 0.750000 13.674963
vt 0.376932 16.409956
vt 0.250000 15.042459
vt 1.000000 16.409956
vt 0.878894 17.777451
vt 0.750000 16.409956
vt 0.362584 19.144947
vt 0.250000 17.777451
vt 0.500000 17.777451
vt 0.000000 20.512444
vt 0.500000 20.512444
vt 0.000000 21.879940
vt 0.952561 0.587871
vt 0.484397 0.685139
vt 0.914616 0.382774
vt 0.405912 0.915622
vt 0.499677 0.999997
vt 0.957835 1.188593
vt 0.749990 0.000029
vt 0.625372 1.432787
vt 0.875711 2.149180
vt 0.250000 2.149180
vt 0.112951 3.212769
vt 0.000000 2.149180
vt 0.750000 3.151795
vt 0.500000 2.464253
vt 0.690960 4.605135
vt 0.443389 4.679006
vt 1.000000 4.641991
vt 0.875538 5.731147
vt 0.250000 5.731147
vt 0.563454 7.138383
vt 0.000000 5.731147
vt 0.500000 7.577606
vt 0.125142 7.880327
vt 0.750000 7.880327
vt 0.750000 7.074053
vt 0.375815 8.596721
vt 0.042603 9.900188
vt 0.000000 8.596721
vt 0.667160 8.834105
vt 0.250000 10.029508
vt 0.625823 10.745901
vt 0.500000 10.029508
vt 0.937731 9.900188
vt 0.234535 10.981608
vt 0.000000 11.462295
vt 0.620374 11.462296
vt 0.259541 12.846693
vt 0.852728 11.884314
vt 0.500000 12.895082
vt 0.933416 13.227957
vt 1.000000 12.178688
vt 0.396348 13.611475
vt 0.250000 15.760654
vt 0.000000 15.500713
vt 0.355448 15.044262
vt 0.506142 18.311798
vt 0.500000 16.489670
vt 0.874852 16.477049
vt 0.250000 17.909836
vt 0.244516 16.503162
vt 0.876700 17.909836
vt 1.000000 17.193441
vt 0.153483 18.626228
vt 0.000000 17.909836
vt 0.750000 18.626228
vt 0.707289 22.179792
vt 1.000000 18.626228
vt 0.863683 0.245721
vt 0.699554 0.332605
vt 0.627692 0.073897
vt 0.500345 0.380636
vt 0.497477 0.002234
vt 0.992402 0.521260
vt 0.692496 0.602307
vt 0.765611 0.805276
vt 0.316592 0.353266
vt 0.142475 0.235190
vt 0.371121 0.079772
vt 0.016002 0.426046
vt 0.292333 0.596529
vt 0.439542 0.739392
vt 0.374498 -0.002431
vt 0.343464 2.037173
vt -0.000049 -0.000337
vt 0.185816 2.992866
vt 0.000000 1.716342
vt 0.624786 3.432684
vt 0.326704 4.489549
vt 0.000000 3.432684
vt 0.750000 4.290855
vt 0.313068 6.431417
vt 0.607376 6.817820
vt 0.950936 4.626710
vt 1.000000 6.865367
vt 1.000000 6.007196
vt 0.713547 8.027264
vt 0.282466 8.693155
vt 0.240795 10.233340
vt 0.000000 8.581710
vt 0.521531 8.655620
vt 0.595943 10.496764
vt 1.000000 10.298052
vt 1.000000 9.439880
vt 0.852696 11.156222
vt 0.595427 13.630516
vt 0.250000 12.014393
vt 0.500000 12.014393
vt 1.000000 13.730735
vt 0.885260 14.588906
vt 0.297927 14.886768
vt 0.117061 16.250383
vt 0.000000 14.588906
vt 1.000000 16.250383
vt 0.750000 16.305248
vt 0.549551 14.758999
vt 0.624799 17.163422
vt 0.500000 16.305248
vt 0.250000 17.163420
vt 0.124391 18.021589
vt 0.000000 17.163420
vt 0.750000 18.021589
vt 0.624778 18.879761
vt 0.500000 18.021589
vt 0.124900 19.737932
vt 0.000000 18.879761
vt 0.250000 18.879761
vt 0.624704 20.596104
vt 0.500000 19.737932
vt 0.750000 19.737932
vt 1.000000 21.454273
vt 0.875004 22.312445
vt 0.625016 21.454273
vt 0.624505 23.170616
vt 0.500000 22.312445
vt 0.250000 23.170616
vt 0.128140 24.028786
vt 0.000000 23.170616
vt 0.750000 24.028786
vt 0.601194 24.886959
vt 0.500000 24.028786
vt 1.000000 24.886957
vt 0.852902 25.745129
vt 0.621130 26.603300
vt 0.500000 25.745129
vt 0.250000 26.603300
vt 0.000000 27.461470
vt 0.000000 26.603300
vt 1.000000 26.603300
vt 0.500000 27.461470
vt 0.786382 0.173586
vt 0.681921 0.257810
vt 0.609004 0.057414
vt 0.963745 0.367505
vt 0.710044 0.517314
vt 0.551095 0.715127
vt 0.500474 0.509874
vt 0.755566 0.792429
vt 0.967493 0.587633
vt 0.588587 0.920762
vt 0.501474 0.228167
vt 0.401694 0.052983
vt 0.499659 -0.000111
vt 0.330695 0.261808
vt 0.199231 0.186027
vt 0.322098 0.511542
vt 0.027446 0.382541
vt 0.433306 0.938721
vt 0.500051 1.000023
vt 0.860614 1.594109
vt 0.500000 0.000000
vt 0.875748 -0.000009
vt 0.500000 1.693281
vt 0.250001 0.000009
vt 0.487567 4.994183
vt 0.250000 3.386563
vt 0.500000 3.386563
vt 0.916157 5.356979
vt 0.869157 3.426218
vt 1.000000 4.233203
vt 0.358121 6.214297
vt 0.208736 4.940101
vt 0.000000 7.446960
vt 0.000000 5.356979
vt 1.000000 7.446960
vt 0.750000 6.001651
vt 0.624695 7.619766
vt 0.124841 8.469901
vt 0.500000 8.466407
vt 0.283311 9.939641
vt 1.000000 10.782269
vt 0.629213 10.132092
vt 1.000000 8.469901
vt 0.750000 11.006329
vt 0.500000 11.006329
vt 0.375053 11.852969
vt 0.092132 10.782269
vt 1.000000 12.699610
vt 0.875412 13.546250
vt 0.750000 12.699610
vt 0.376199 14.392892
vt 0.250000 13.546250
vt 0.500000 13.546250
vt 0.925108 15.572975
vt 0.750000 14.392892
vt 1.000000 14.392892
vt 0.500000 15.239532
vt 0.378783 16.086172
vt 0.250000 15.239532
vt 0.250000 16.932814
vt 0.000000 15.572975
vt 0.843282 16.715775
vt 0.500000 16.932814
vt 0.375544 17.779453
vt 1.000000 17.779453
vt 0.876837 18.636292
vt 0.750000 17.779453
vt 0.319539 19.884975
vt 0.250000 18.626095
vt 0.505940 18.646210
vt 0.515709 21.057381
vt 0.125397 21.166018
vt 0.000000 20.319376
vt 0.649358 22.012657
vt 0.767925 21.105314
vt 0.375359 22.859299
vt 0.250000 22.012657
vt 0.868649 23.705938
vt 0.750000 22.859299
vt 1.000000 22.859299
vt 0.374696 24.552582
vt 0.250000 23.705938
vt 0.500000 23.705938
vt 0.125539 25.399220
vt 0.000000 24.552580
vt 0.000000 26.245861
vt 0.500000 26.245861
vt 0.000000 27.092501
vt 0.896408 0.279495
vt 0.728562 0.379176
vt 0.719521 0.126897
vt 0.501183 0.353754
vt 0.642004 0.040702
vt 0.401362 0.624667
vt 0.908772 0.663787
vt 0.995040 0.468096
vt 0.586287 0.923848
vt 0.495122 0.792572
vt 0.718591 0.797517
vt 0.391765 0.055055
vt 0.500764 0.000390
vt 0.340805 0.365858
vt 0.010494 0.533536
vt 0.144126 0.710853
vt 0.312168 0.846673
vt 0.499118 0.999580
vt 0.125540 0.000000
vt 0.500000 1.352943
vt 0.750000 2.705885
vt 1.000000 2.705885
vt 0.000000 4.058828
vt 1.000000 4.058828
vt 1.000000 5.411771
vt 1.000000 6.764714
vt 1.000000 8.117657
vt 1.000000 9.470599
vt 0.000000 10.823542
vt 1.000000 10.823542
vt 0.000000 12.176485
vt 0.000000 13.529428
vt 0.750000 14.882370
vt 0.750000 16.235313
vt 1.000000 14.882370
vt 1.000000 16.235313
vt 0.000000 17.588255
vt 0.250000 18.941198
vt 0.000000 18.941198
vt 0.500000 18.941198
vt 0.250000 20.294142
vt 0.750000 20.294142
vt 0.725916 0.133743
vt 0.944739 0.341663
vt 1.000000 20.294142
vt 0.498836 0.002173
vt 0.000000 0.000000
vt 0.377672 0.000000
vt 0.250000 1.367496
vt 0.000000 1.367496
vt 0.499936 1.000011
vt 0.395382 0.908947
vt 0.500000 1.367496
vt 0.000000 2.734993
vt 0.250000 2.734993
vt 0.000000 4.102489
vt 0.000000 6.304504
vt 1.000000 4.102489
vt 0.500000 8.204978
vt 0.250000 10.939970
vt 1.000000 9.572474
vt 0.000000 10.939970
vt 1.000000 10.939970
vt 0.649907 12.307467
vt 1.000000 12.307467
vt 1.000000 13.674963
vt 0.000000 15.042459
vt 1.000000 15.042459
vt 0.000000 16.409956
vt 0.000000 17.777451
vt 0.000000 19.144947
vt 0.750000 19.144947
vt 0.250000 20.512444
vt 1.000000 19.144947
vt 0.750000 20.512444
vt 1.000000 20.512444
vt 0.681966 0.847707
vt 0.503464 0.003316
vt 0.722992 0.136986
vt 0.490429 0.401458
vt 0.229681 0.160283
vt 0.087273 0.293612
vt 0.135147 0.704161
vt 0.004553 0.499108
vt 0.376221 0.000000
vt 0.250000 1.216962
vt 0.000000 1.188593
vt 1.000000 3.212769
vt 0.000000 4.641991
vt 1.000000 7.105615
vt 1.000000 7.880327
vt 1.000000 8.596721
vt 0.750000 9.313114
vt 0.750000 13.611475
vt 0.000000 13.227957
vt 0.375720 14.327868
vt 0.000000 14.327868
vt 0.750000 14.327868
vt 1.000000 14.327868
vt 0.750000 15.044261
vt 0.920795 15.500713
vt 0.500000 15.760654
vt 0.000000 16.477049
vt 0.498584 0.998844
vt 1.000000 2.574513
vt 1.000000 3.432684
vt 0.037214 0.595067
vt 0.264985 0.814938
vt 0.749853 -0.002550
vt 0.000000 4.626710
vt 0.000000 6.865367
vt 0.250000 7.723538
vt 0.000000 7.723538
vt 1.000000 7.723538
vt 0.000000 10.298052
vt 0.250000 11.156222
vt 0.000000 11.156222
vt 0.000000 12.027552
vt 0.877492 12.027552
vt 0.750000 12.872564
vt 0.250000 13.730735
vt 0.000000 13.730735
vt 1.000000 17.163420
vt 1.000000 18.021589
vt 1.000000 18.879761
vt 1.000000 19.737932
vt 0.250000 20.596104
vt 0.000000 20.596104
vt 1.000000 20.596104
vt 0.000000 21.454273
vt 0.250000 21.454273
vt 0.250000 22.312445
vt 0.000000 22.312445
vt 1.000000 23.170616
vt 1.000000 24.028786
vt 0.250000 24.886957
vt 0.000000 24.886957
vt 0.250000 25.745129
vt 0.000000 25.745129
vt 0.000000 -0.000009
vt 0.250000 1.693281
vt 0.000000 1.693281
vt 0.019178 0.544244
vt 0.218537 0.780582
vt 0.250000 2.539922
vt 0.000000 2.539922
vt 0.500000 2.539922
vt 0.875357 2.539922
vt 0.000000 3.386563
vt 0.750000 8.466407
vt 0.750000 11.852969
vt 0.000000 11.852969
vt 1.000000 11.852969
vt 0.000000 12.699610
vt 0.375443 12.699610
vt 0.000000 13.546250
vt 0.000000 14.392892
vt 0.000000 17.779453
vt 0.000000 16.932814
vt 0.000000 18.636292
vt 0.000000 22.012657
vt 1.000000 21.166018
vt 1.000000 22.012657
vt 0.000000 22.859299
vt 0.000000 23.705938
vt 0.750000 24.552580
vt 0.500000 25.399220
vt 0.750000 25.399220
vt 1.000000 24.552580
vt 1.000000 25.399220
vt 0.250000 26.245861
vt 0.750000 26.245861
vt 1.000000 26.245861
vt 0.092234 0.290139
s 1
usemtl Green_plastic
f 3/1/1 6/2/2 1/3/3
f 2/4/4 7/5/5 3/6/1
f 8/7/6 10/8/7 7/5/5
f 15/9/8 10/8/7 12/10/9
f 13/11/10 16/12/11 14/13/12
f 21/14/13 17/15/14 18/16/15
f 19/17/16 22/18/17 20/19/18
f 27/20/19 23/21/20 24/22/21
f 28/23/22 25/24/23 27/20/19
f 32/25/24 30/26/25 29/27/26
f 33/28/27 34/29/28 31/30/29
f 37/31/30 35/32/31 34/29/28
f 38/33/32 40/34/33 37/31/30
f 44/35/34 42/36/35 41/37/36
f 47/38/37 48/39/38 50/40/39
f 57/41/40 59/42/41 55/43/42
f 62/44/43 60/45/44 57/41/40
f 63/46/45 62/44/43 61/47/46
f 67/48/47 66/49/48 65/50/49
f 59/42/41 67/48/47 55/43/42
f 68/51/50 67/48/47 59/42/41
f 69/52/51 59/42/41 60/45/44
f 74/53/52 76/2/53 73/3/54
f 82/54/55 79/55/56 78/56/57
f 83/57/58 80/58/59 82/54/55
f 87/59/60 85/60/61 84/61/62
f 86/62/63 89/63/64 87/64/60
f 94/65/65 90/66/66 91/67/67
f 95/68/68 98/69/69 96/70/70
f 103/71/71 99/72/72 100/73/73
f 103/71/71 104/74/74 101/75/75
f 105/76/76 108/77/77 106/78/78
f 110/79/79 107/80/80 109/81/81
f 114/82/82 115/83/83 117/84/84
f 124/85/85 125/86/86 123/87/87
f 133/88/88 125/86/86 127/89/89
f 137/90/90 138/91/91 136/3/92
f 137/90/90 139/92/93 138/91/91
f 137/90/90 141/93/94 139/92/93
f 140/94/95 143/95/96 141/96/94
f 144/97/97 142/98/98 141/93/94
f 147/99/99 145/100/100 144/97/97
f 146/101/101 149/102/102 147/99/99
f 148/103/103 150/104/104 149/105/102
f 151/106/105 153/107/106 150/104/104
f 154/108/107 151/106/105 152/109/108
f 151/106/105 155/110/109 153/107/106
f 157/111/110 156/112/111 155/110/109
f 158/113/112 160/114/113 157/111/110
f 163/115/114 161/116/115 157/117/110
f 162/118/116 166/119/117 157/111/110
f 164/120/118 162/118/116 163/115/114
f 165/121/119 162/118/116 164/120/118
f 166/122/117 168/123/120 165/121/119
f 167/124/121 166/122/117 162/125/116
f 168/123/120 169/126/122 165/121/119
f 177/127/123 175/128/124 174/129/125
f 184/130/126 181/131/127 180/132/128
f 181/131/127 182/133/129 179/134/130
f 183/135/131 184/130/126 179/136/130
f 182/133/129 185/137/132 183/138/131
f 184/130/126 185/137/132 182/133/129
f 186/139/133 184/130/126 183/135/131
f 184/130/126 187/140/134 185/137/132
f 187/140/134 184/130/126 186/139/133
f 187/140/134 186/139/133 185/141/132
f 193/142/135 194/143/136 192/144/137
f 194/143/136 195/145/138 191/146/139
f 196/147/140 197/148/141 194/143/136
f 199/149/142 197/148/141 196/147/140
f 203/150/143 202/151/144 201/152/145
f 204/153/146 203/150/143 205/154/147
f 205/154/147 195/145/138 198/155/148
f 208/156/149 211/157/150 209/158/151
f 211/157/150 212/159/152 210/160/153
f 208/156/149 214/161/154 211/157/150
f 215/162/155 213/163/156 212/159/152
f 215/162/155 212/159/152 214/161/154
f 217/164/157 218/165/158 215/162/155
f 220/166/159 218/165/158 216/167/160
f 219/168/161 220/166/159 215/169/155
f 223/170/162 218/165/158 220/166/159
f 224/171/163 226/172/164 223/173/162
f 225/174/165 228/175/166 224/171/163
f 227/176/167 225/174/165 226/177/164
f 227/176/167 230/178/168 228/175/166
f 234/179/169 231/180/170 233/181/171
f 237/182/172 239/183/173 234/179/169
f 238/184/174 241/185/175 239/186/173
f 241/187/175 243/188/176 240/189/177
f 246/190/178 242/191/179 243/188/176
f 244/192/180 247/193/181 245/194/182
f 249/195/183 252/196/184 248/197/185
f 253/198/186 251/199/187 250/200/188
f 258/201/189 254/202/190 255/203/191
f 260/204/192 263/205/193 261/206/194
f 267/207/195 264/208/196 263/205/193
f 265/209/197 268/210/198 266/211/199
f 270/212/200 273/213/201 269/214/202
f 272/215/203 275/216/204 273/213/201
f 275/216/204 279/217/205 276/218/206
f 277/219/207 280/220/208 278/221/209
f 279/217/205 278/222/209 280/223/208
f 286/224/210 287/225/211 284/226/212
f 288/227/213 289/228/214 287/225/211
f 292/229/215 290/230/216 289/228/214
f 293/231/217 292/229/215 291/232/218
f 295/233/219 292/229/215 293/231/217
f 285/234/220 297/235/221 296/236/222
f 299/237/223 298/238/224 297/235/221
f 301/239/225 300/240/226 299/237/223
f 301/239/225 290/230/216 292/229/215
f 304/241/227 292/229/215 294/242/228
f 308/243/229 307/244/230 306/245/231
f 308/243/229 310/246/232 305/247/233
f 316/248/234 314/249/235 315/250/236
f 319/251/237 318/252/238 317/253/239
f 316/248/234 320/254/240 317/255/239
f 320/254/240 322/256/241 319/257/237
f 322/258/241 321/259/242 319/251/237
f 321/259/242 323/260/243 320/254/240
f 327/261/244 322/256/241 320/254/240
f 324/262/245 326/263/246 327/261/244
f 328/264/247 329/265/248 327/266/244
f 328/264/247 331/267/249 329/265/248
f 330/268/250 332/269/251 328/270/247
f 336/271/252 339/272/253 337/273/254
f 341/274/255 338/275/256 340/276/257
f 345/277/258 343/278/259 342/279/260
f 346/280/261 347/281/262 344/282/263
f 349/283/264 345/284/258 347/281/262
f 348/285/265 350/286/266 347/281/262
f 351/287/267 349/283/264 350/286/266
f 352/288/268 355/289/269 353/290/270
f 357/291/271 354/292/272 356/293/273
f 356/293/273 358/294/274 357/291/271
f 359/295/275 360/296/276 357/291/271
f 363/297/277 358/294/274 360/298/276
f 364/299/278 361/300/279 363/297/277
f 368/301/280 366/302/281 365/303/282
f 370/304/283 367/305/284 369/306/285
f 373/307/286 371/308/287 370/304/283
f 377/309/288 378/310/289 380/311/290
f 387/312/291 388/313/292 386/314/293
f 388/313/292 389/315/294 385/316/295
f 388/313/292 391/317/296 389/315/294
f 392/318/297 388/313/292 390/319/298
f 392/318/297 391/317/296 388/313/292
f 396/320/299 394/321/300 393/322/301
f 385/316/295 397/323/302 384/324/303
f 389/315/294 398/325/304 385/316/295
f 398/325/304 389/315/294 391/317/296
f 400/326/305 398/325/304 391/317/296
f 401/327/306 391/317/296 394/321/300
f 402/328/307 394/321/300 395/329/308
f 2/4/4 3/6/1 1/330/3
f 5/331/309 4/244/310 6/2/2 3/1/1
f 2/4/4 5/331/309 8/7/6 7/5/5
f 5/331/309 3/1/1 9/332/311 8/7/6
f 8/7/6 9/332/311 12/10/9 10/8/7
f 3/1/1 7/333/5 9/332/311
f 7/5/5 10/8/7 11/334/312
f 9/332/311 7/333/5 11/335/312 12/10/9
f 14/13/12 11/334/312 10/8/7 13/11/10
f 12/10/9 11/335/312 14/336/12 15/9/8
f 10/8/7 15/9/8 13/11/10
f 13/11/10 15/9/8 17/15/14 16/12/11
f 18/16/15 15/9/8 14/336/12 16/337/11
f 18/16/15 17/15/14 15/9/8
f 16/12/11 17/15/14 21/14/13 19/17/16
f 16/12/11 19/17/16 20/19/18
f 18/16/15 16/337/11 20/338/18 21/14/13
f 19/17/16 21/14/13 23/21/20 22/18/17
f 24/22/21 21/14/13 20/338/18 22/339/17
f 24/22/21 23/21/20 21/14/13
f 25/24/23 22/18/17 23/21/20 27/20/19
f 22/18/17 25/24/23 26/340/313
f 24/22/21 22/339/17 26/341/313 27/20/19
f 29/342/26 26/340/313 25/24/23 28/23/22
f 30/26/25 27/20/19 26/341/313 29/27/26
f 30/26/25 28/23/22 27/20/19
f 29/342/26 28/23/22 31/30/29 32/343/24
f 33/28/27 28/23/22 30/26/25 32/25/24
f 28/23/22 33/28/27 31/30/29
f 35/32/31 32/343/24 31/30/29 34/29/28
f 33/28/27 32/25/24 36/344/314 34/29/28
f 38/33/32 34/29/28 36/344/314 39/345/315
f 35/346/31 36/344/314 32/25/24
f 38/33/32 37/31/30 34/29/28
f 39/345/315 36/344/314 35/346/31 37/347/30
f 38/33/32 39/345/315 42/36/35 40/34/33
f 37/31/30 40/34/33 41/348/36
f 39/345/315 37/347/30 41/37/36 42/36/35
f 41/348/36 40/34/33 43/349/316 44/350/34
f 45/351/317 40/34/33 42/36/35 44/35/34
f 40/34/33 45/351/317 43/349/316
f 47/38/318 44/350/34 43/349/316 46/352/319
f 46/352/319 43/349/316 45/351/317 48/39/320
f 48/39/320 45/351/317 44/35/34 49/353/321
f 57/41/40 55/43/42 56/354/322 58/355/323
f 47/356/318 49/353/321 44/35/34
f 47/38/318 46/352/319 48/39/320
f 48/39/320 49/353/321 47/356/318
f 54/357/324 56/354/322 55/43/42
f 73/358/54 71/359/325 72/360/326 74/361/52
f 58/355/323 61/47/46 57/41/40
f 57/41/40 60/45/44 59/42/41
f 57/41/40 61/47/46 62/44/43
f 63/46/45 60/45/44 62/44/43
f 63/46/45 64/362/327 60/45/44
f 55/43/42 65/50/49 54/357/324
f 55/43/42 67/48/47 65/50/49
f 67/48/47 68/51/50 66/49/48
f 2/4/4 1/330/3 4/244/310 5/331/309
f 69/52/51 68/51/50 59/42/41
f 70/363/328 69/52/51 60/45/44
f 64/362/327 70/363/328 60/45/44
f 75/364/329 71/359/325 76/2/53 74/53/52
f 71/359/325 75/364/329 72/360/326
f 78/365/57 74/361/52 72/360/326 77/366/330
f 77/366/330 72/360/326 75/364/329 79/55/56
f 75/364/329 74/53/52 78/56/57 79/55/56
f 81/367/331 78/365/57 77/366/330 80/58/59
f 80/58/59 77/366/330 79/55/56 82/54/55
f 84/368/62 81/367/331 80/58/59 83/57/58
f 81/369/331 82/54/55 78/56/57
f 85/60/61 82/54/55 81/369/331 84/61/62
f 85/60/61 83/57/58 82/54/55
f 84/368/62 83/57/58 86/62/63 87/64/60
f 88/370/332 83/57/58 85/60/61 87/59/60
f 83/57/58 88/370/332 86/62/63
f 86/62/63 88/370/332 90/66/66 89/63/64
f 88/370/332 87/59/60 91/67/67 90/66/66
f 92/371/333 89/63/64 90/66/66 94/65/65
f 87/59/60 89/372/64 91/67/67
f 89/63/64 92/371/333 93/373/334
f 91/67/67 89/372/64 93/374/334 94/65/65
f 96/70/70 93/373/334 92/371/333 95/68/68
f 95/68/68 92/371/333 94/65/65 97/375/335
f 97/375/335 94/65/65 93/374/334 96/376/70
f 95/68/68 97/375/335 99/72/72 98/69/69
f 100/73/73 97/375/335 96/376/70 98/377/69
f 100/73/73 99/72/72 97/375/335
f 101/75/75 98/69/69 99/72/72 103/71/71
f 98/69/69 101/75/75 102/378/336
f 100/73/73 98/377/69 102/379/336 103/71/71
f 105/380/76 102/378/336 101/75/75 104/74/74
f 106/78/78 103/71/71 102/379/336 105/76/76
f 106/78/78 104/74/74 103/71/71
f 105/380/76 104/74/74 107/80/80 108/381/77
f 109/81/81 104/74/74 106/78/78 108/77/77
f 109/81/81 107/80/80 104/74/74
f 111/382/337 108/381/77 107/80/80 110/79/79
f 109/81/81 108/77/77 112/383/338 110/79/79
f 111/382/337 110/79/79 113/384/339 114/82/340
f 108/77/77 111/385/337 112/383/338
f 110/79/79 112/383/338 116/386/341 115/83/342
f 110/79/79 115/83/342 113/384/339
f 116/386/341 112/383/338 111/385/337 114/387/340
f 125/86/86 124/85/85 126/388/343 127/89/89
f 114/82/340 113/384/339 115/83/342
f 115/83/342 116/386/341 114/387/340
f 128/389/344 121/390/345 122/391/346
f 121/390/345 123/87/87 122/391/346
f 123/87/87 125/86/86 122/391/346
f 129/392/347 128/389/344 122/391/346 130/393/348
f 122/391/346 125/86/86 132/394/349 131/395/350
f 122/391/346 131/395/350 130/393/348
f 136/358/92 134/396/351 135/397/352 137/398/90
f 133/88/88 132/394/349 125/86/86
f 137/398/90 135/397/352 140/94/95 141/96/94
f 134/396/351 138/91/91 135/397/352
f 138/91/91 139/92/93 135/397/352
f 135/397/352 139/92/93 142/98/98 140/94/95
f 147/99/99 144/97/97 143/399/96 146/101/101
f 139/92/93 141/93/94 142/98/98
f 142/98/98 143/95/96 140/94/95
f 141/93/94 143/399/96 144/97/97
f 142/98/98 145/100/100 143/95/96
f 144/97/97 145/100/100 142/98/98
f 143/95/96 145/100/100 146/400/101
f 146/400/101 145/100/100 148/103/103 149/105/102
f 148/103/103 145/100/100 151/106/105 150/104/104
f 147/99/99 149/102/102 145/100/100
f 145/100/100 149/102/102 152/109/108 151/106/105
f 154/108/107 152/109/108 150/401/104 153/402/106
f 149/102/102 150/401/104 152/109/108
f 151/106/105 154/108/107 158/113/112 155/110/109
f 153/107/106 155/110/109 156/112/111
f 158/113/112 154/108/107 153/402/106 156/403/111
f 159/404/353 158/113/112 156/403/111 157/117/110
f 158/113/112 157/111/110 155/110/109
f 161/116/115 158/113/112 159/404/353 157/117/110
f 158/113/112 161/116/115 160/114/113
f 162/118/116 160/114/113 161/116/115 163/115/114
f 160/114/113 162/118/116 157/111/110
f 164/120/118 163/115/114 157/117/110 166/122/117
f 168/123/120 167/124/121 170/405/354 169/126/122
f 166/122/117 165/121/119 164/120/118
f 165/121/119 167/406/121 162/118/116
f 166/122/117 167/124/121 168/123/120
f 165/121/119 169/126/122 167/406/121
f 167/406/121 169/126/122 171/407/355 172/408/356
f 169/126/122 170/405/354 173/409/357 171/407/355
f 173/409/357 170/405/354 167/124/121 172/410/356
f 172/408/356 171/407/355 174/129/125 175/128/124
f 171/407/355 173/409/357 176/411/358 174/129/125
f 176/411/358 173/409/357 172/410/356 175/412/124
f 178/413/359 174/129/125 176/411/358 175/412/124
f 178/413/359 177/127/123 174/129/125
f 180/414/128 175/128/124 177/127/123 179/134/130
f 177/127/123 178/413/359 181/131/127 179/134/130
f 178/413/359 175/412/124 180/132/128 181/131/127
f 201/152/145 191/146/139 195/145/138 203/150/143
f 180/132/128 179/136/130 184/130/126
f 182/133/129 183/138/131 179/134/130
f 181/131/127 184/130/126 182/133/129
f 183/135/131 185/141/132 186/139/133
f 192/144/137 194/143/136 191/146/139
f 193/142/135 196/147/140 194/143/136
f 194/143/136 197/148/141 195/145/138
f 197/148/141 198/155/148 195/145/138
f 199/149/142 198/155/148 197/148/141
f 199/149/142 200/415/360 198/155/148
f 208/156/149 212/416/152 213/417/156 214/161/154
f 203/150/143 204/153/146 202/151/144
f 195/145/138 205/154/147 203/150/143
f 206/418/361 204/153/146 205/154/147
f 207/419/362 206/418/361 205/154/147
f 207/419/362 205/154/147 198/155/148
f 200/415/360 207/419/362 198/155/148
f 211/157/150 210/160/153 209/158/151
f 210/420/153 212/416/152 208/156/149
f 211/157/150 214/161/154 212/159/152
f 217/164/157 214/161/154 213/417/156 216/167/160
f 215/162/155 216/421/160 213/163/156
f 217/164/157 215/162/155 214/161/154
f 219/422/161 218/165/158 221/423/363 222/424/364
f 217/164/157 216/167/160 218/165/158
f 216/167/160 215/169/155 220/166/159
f 218/165/158 219/422/161 215/162/155
f 223/170/162 220/166/159 219/168/161 222/425/364
f 223/170/162 221/423/363 218/165/158
f 222/424/364 221/423/363 224/171/163 223/173/162
f 221/423/363 223/170/162 225/174/165 224/171/163
f 227/426/167 226/172/164 229/427/365 230/428/168
f 223/170/162 226/177/164 225/174/165
f 224/171/163 228/175/166 226/172/164
f 227/176/167 228/175/166 225/174/165
f 232/429/366 230/428/168 229/427/365 231/180/170
f 228/175/166 229/427/365 226/172/164
f 229/427/365 228/175/166 233/181/171 231/180/170
f 228/175/166 230/178/168 232/430/366 233/181/171
f 233/181/171 232/430/366 235/431/367 234/179/169
f 231/180/170 234/179/169 232/429/366
f 232/429/366 234/179/169 236/432/368 237/433/172
f 235/431/367 232/430/366 237/182/172 234/179/169
f 239/186/173 237/433/172 236/432/368 238/184/174
f 236/432/368 234/179/169 240/189/177 238/184/174
f 242/191/179 238/184/174 240/189/177 243/188/176
f 234/179/169 239/183/173 240/189/177
f 239/183/173 241/187/175 240/189/177
f 242/191/179 241/185/175 238/184/174
f 244/192/180 241/185/175 242/191/179 246/190/178
f 241/185/175 244/192/180 245/194/182
f 243/188/176 241/187/175 245/434/182 246/190/178
f 244/192/180 246/190/178 248/197/185 247/193/181
f 249/195/183 246/190/178 245/434/182 247/435/181
f 249/195/183 248/197/185 246/190/178
f 250/200/188 247/193/181 248/197/185 252/196/184
f 250/200/188 251/199/187 247/193/181
f 249/195/183 247/435/181 251/436/187 252/196/184
f 250/200/188 252/196/184 254/202/190 253/198/186
f 255/203/191 252/196/184 251/436/187 253/437/186
f 252/196/184 255/203/191 254/202/190
f 256/438/369 253/198/186 254/202/190 258/201/189
f 253/198/186 256/438/369 257/439/370
f 255/203/191 253/437/186 257/440/370 258/201/189
f 260/441/192 257/439/370 256/438/369 259/442/371
f 259/442/371 256/438/369 258/201/189 261/206/194
f 258/201/189 257/440/370 260/204/192 261/206/194
f 260/441/192 259/442/371 262/443/372 263/444/193
f 259/442/371 261/206/194 264/208/196 262/443/372
f 266/211/199 263/444/193 262/443/372 265/209/197
f 261/206/194 263/205/193 264/208/196
f 262/443/372 264/208/196 267/207/195 265/209/197
f 265/209/197 267/207/195 269/214/202 268/210/198
f 263/205/193 266/445/199 267/207/195
f 270/212/200 267/207/195 266/445/199 268/446/198
f 270/212/200 269/214/202 267/207/195
f 271/447/373 268/210/198 269/214/202 273/213/201
f 271/447/373 272/448/203 268/210/198
f 270/212/200 268/446/198 272/215/203 273/213/201
f 272/448/203 271/447/373 274/449/374 275/450/204
f 274/449/374 271/447/373 273/213/201 276/218/206
f 278/221/209 275/450/204 274/449/374 277/219/207
f 273/213/201 275/216/204 276/218/206
f 277/219/207 274/449/374 276/218/206 279/217/205
f 290/230/216 285/234/220 287/225/211 289/228/214
f 275/216/204 278/222/209 279/217/205
f 277/219/207 279/217/205 280/220/208
f 296/236/222 284/226/212 285/234/220
f 284/226/212 287/225/211 285/234/220
f 286/224/210 288/227/213 287/225/211
f 299/237/223 285/234/220 290/230/216 301/239/225
f 288/227/213 291/232/218 289/228/214
f 291/232/218 292/229/215 289/228/214
f 295/233/219 294/242/228 292/229/215
f 285/234/220 299/237/223 297/235/221
f 299/237/223 300/240/226 298/238/224
f 306/451/231 305/247/233 309/452/375 308/453/229
f 301/239/225 302/454/376 300/240/226
f 303/455/377 302/454/376 301/239/225
f 303/455/377 301/239/225 292/229/215
f 304/241/227 303/455/377 292/229/215
f 308/243/229 305/247/233 307/244/230
f 308/453/229 309/452/375 311/456/378 312/457/379
f 305/247/233 310/246/232 309/452/375
f 311/456/378 309/452/375 310/246/232 313/458/380
f 313/458/380 310/246/232 308/243/229 312/459/379
f 318/460/238 312/457/379 311/456/378 314/249/235
f 311/456/378 313/458/380 315/250/236 314/249/235
f 313/458/380 312/459/379 318/252/238 315/250/236
f 317/255/239 318/460/238 314/249/235 316/248/234
f 316/248/234 319/251/237 321/259/242 320/254/240
f 318/252/238 316/248/234 315/250/236
f 318/252/238 319/251/237 316/248/234
f 317/255/239 320/254/240 319/257/237
f 320/254/240 323/260/243 324/262/245 327/261/244
f 322/258/241 323/260/243 321/259/242
f 325/461/381 323/260/243 322/258/241 327/266/244
f 323/260/243 325/461/381 324/262/245
f 324/262/245 325/461/381 329/265/248 326/263/246
f 326/263/246 329/265/248 330/268/250 328/270/247
f 327/266/244 329/265/248 325/461/381
f 326/263/246 328/270/247 327/261/244
f 330/268/250 331/267/249 334/462/382 332/269/251
f 329/265/248 331/267/249 330/268/250
f 328/270/247 332/269/251 333/463/383
f 331/267/249 328/264/247 333/464/383 334/462/382
f 336/465/252 333/463/383 332/269/251 335/466/384
f 332/269/251 334/462/382 337/273/254 335/466/384
f 334/462/382 333/464/383 336/271/252 337/273/254
f 336/465/252 335/466/384 338/275/256 339/467/253
f 340/276/257 335/466/384 337/273/254 339/272/253
f 340/276/257 338/275/256 335/466/384
f 342/468/260 339/467/253 338/275/256 341/274/255
f 340/276/257 339/272/253 343/278/259 341/274/255
f 342/468/260 341/274/255 344/282/263 345/284/258
f 339/272/253 342/279/260 343/278/259
f 346/280/261 341/274/255 343/278/259 345/277/258
f 341/274/255 346/280/261 344/282/263
f 346/280/261 345/277/258 348/285/265 347/281/262
f 344/282/263 347/281/262 345/284/258
f 352/469/268 348/470/265 349/283/264 351/287/267
f 349/283/264 348/470/265 345/284/258
f 347/281/262 350/286/266 349/283/264
f 350/286/266 348/285/265 353/290/270 351/287/267
f 352/469/268 351/287/267 354/292/272 355/471/269
f 352/288/268 353/290/270 348/285/265
f 356/293/273 351/287/267 353/290/270 355/289/269
f 356/293/273 354/292/272 351/287/267
f 356/293/273 355/289/269 360/298/276 358/294/274
f 354/292/272 357/291/271 355/471/269
f 357/291/271 360/296/276 355/471/269
f 361/300/279 359/295/275 358/294/274 363/297/277
f 358/294/274 359/295/275 357/291/271
f 359/295/275 361/300/279 362/472/385
f 360/298/276 359/473/275 362/474/385 363/297/277
f 365/475/282 362/472/385 361/300/279 364/299/278
f 363/297/277 362/474/385 365/303/282 366/302/281
f 366/302/281 364/299/278 363/297/277
f 365/475/282 364/299/278 367/305/284 368/476/280
f 369/306/285 364/299/278 366/302/281 368/301/280
f 369/306/285 367/305/284 364/299/278
f 371/308/287 368/476/280 367/305/284 370/304/283
f 369/306/285 368/301/280 372/477/386 370/304/283
f 374/478/387 370/304/283 372/477/386 375/479/388
f 368/301/280 371/480/287 372/477/386
f 374/478/387 373/307/286 370/304/283
f 375/479/388 372/477/386 371/480/287 373/481/286
f 376/482/389 373/307/286 374/478/387 378/310/390
f 373/307/286 376/482/389 377/309/391
f 374/478/387 375/479/388 379/483/392 378/310/390
f 375/479/388 373/481/286 377/484/391 379/483/392
f 391/317/296 392/318/297 393/322/301 394/321/300
f 377/309/391 376/482/389 378/310/390
f 378/310/390 379/483/392 377/484/391
f 386/314/293 388/313/292 385/316/295
f 387/312/291 390/319/298 388/313/292
f 396/320/299 395/329/308 394/321/300
f 385/316/295 398/325/304 397/323/302
f 398/325/304 399/485/393 397/323/302
f 398/325/304 400/326/305 399/485/393
f 401/327/306 400/326/305 391/317/296
f 402/328/307 401/327/306 394/321/300
l 118 119
l 51 52
l 281 282
l 188 189
l 381 382
l 53 52
l 120 119
l 190 189
l 283 282
l 383 382
